<?xml version="1.0" standalone="no"?>
<!DOCTYPE svg PUBLIC "-//W3C//DTD SVG 20010904//EN"
 "http://www.w3.org/TR/2001/REC-SVG-20010904/DTD/svg10.dtd">
<svg version="1.0" xmlns="http://www.w3.org/2000/svg"
 width="2000.000000pt" height="1500.000000pt" viewBox="0 0 2000.000000 1500.000000"
 preserveAspectRatio="xMidYMid meet">

<g transform="translate(0.000000,1500.000000) scale(0.100000,-0.100000)"
fill="#000000" stroke="none">
<path d="M4037 8219 c-14 -8 -17 -24 -17 -87 0 -88 7 -105 41 -100 23 3 24 7
27 90 2 75 0 88 -15 97 -12 6 -25 6 -36 0z"/>
<path d="M3571 8081 c-12 -21 3 -45 68 -113 38 -41 52 -46 71 -23 17 21 6 43
-50 103 -53 56 -73 63 -89 33z"/>
<path d="M4451 8044 c-52 -57 -65 -96 -35 -108 21 -8 33 0 87 62 49 55 55 70
35 90 -21 21 -34 14 -87 -44z"/>
<path d="M3877 7949 c-125 -29 -207 -141 -194 -266 6 -60 37 -118 93 -177 47
-48 268 -226 282 -226 17 0 267 206 300 248 46 57 74 126 70 170 -3 32 -7 37
-30 40 -23 3 -28 -1 -33 -25 -23 -112 -44 -139 -198 -263 l-110 -89 -80 62
c-124 95 -184 154 -206 200 -78 161 86 322 244 240 39 -21 41 -21 75 -3 54 29
100 33 154 15 43 -15 50 -15 64 -2 55 55 -129 108 -217 62 -29 -15 -36 -15
-64 -2 -44 20 -105 26 -150 16z"/>
<path d="M8557 7940 c-108 -19 -199 -91 -250 -200 -27 -55 -31 -76 -31 -145 1
-111 29 -182 103 -256 77 -76 146 -103 256 -97 117 7 211 57 203 110 -4 31
-40 35 -77 9 -45 -32 -81 -43 -147 -43 -147 1 -258 118 -258 272 0 217 226
353 398 239 54 -36 86 -33 86 9 0 65 -160 122 -283 102z"/>
<path d="M5998 7930 c-17 -10 -18 -37 -18 -334 0 -272 2 -325 15 -336 10 -8
54 -11 152 -8 127 3 143 5 195 31 114 56 169 148 176 292 5 123 -18 188 -97
265 -77 75 -123 91 -281 97 -80 2 -131 0 -142 -7z m297 -94 c102 -47 151 -136
143 -263 -5 -89 -21 -126 -78 -183 -49 -49 -116 -70 -222 -70 l-78 0 0 270 0
270 93 0 c75 0 101 -4 142 -24z"/>
<path d="M6687 7928 c-16 -12 -17 -42 -15 -343 l3 -330 29 -3 c16 -2 32 2 37
10 5 7 9 158 9 335 0 308 -1 323 -19 333 -24 13 -24 13 -44 -2z"/>
<path d="M6856 7918 c-18 -26 -27 -8 119 -236 l115 -181 0 -114 c0 -124 7
-142 52 -135 22 3 23 7 28 128 l5 125 123 190 c67 104 122 197 122 206 0 23
-25 42 -47 35 -10 -3 -67 -85 -127 -181 -60 -96 -110 -175 -112 -175 -1 0 -44
66 -94 148 -141 226 -152 236 -184 190z"/>
<path d="M7628 7928 c-9 -7 -76 -155 -148 -328 -139 -332 -142 -345 -84 -345
26 0 31 6 58 73 l30 72 165 0 166 0 24 -62 c29 -78 37 -88 67 -88 43 0 46 29
10 116 -206 500 -240 574 -266 574 -3 0 -13 -6 -22 -12z m90 -291 c34 -84 62
-156 62 -160 0 -4 -58 -7 -130 -7 -71 0 -130 3 -130 8 0 13 124 312 130 312 3
0 34 -69 68 -153z"/>
<path d="M9008 7929 c-17 -9 -18 -36 -18 -333 0 -349 0 -352 52 -344 23 3 23
5 26 156 l3 152 209 0 210 0 0 -144 c0 -155 5 -171 52 -164 l23 3 3 329 c2
332 0 356 -34 356 -7 0 -20 -7 -28 -16 -13 -12 -16 -41 -16 -155 l0 -139 -207
2 -208 3 -3 139 c-3 161 -13 185 -64 155z"/>
<path d="M9945 7917 c-8 -12 -71 -158 -140 -322 -134 -319 -140 -345 -86 -345
26 0 31 7 61 75 l33 75 164 0 164 0 19 -47 c36 -89 44 -98 75 -98 23 0 31 5
33 22 4 25 -252 643 -271 655 -21 13 -36 9 -52 -15z m100 -282 c36 -87 64
-160 62 -162 -3 -2 -63 -2 -134 -1 l-130 3 66 162 c36 89 67 161 68 159 2 -1
32 -74 68 -161z"/>
<path d="M10388 7923 c-16 -18 -18 -48 -18 -327 0 -193 4 -315 10 -327 6 -11
21 -19 35 -19 37 0 45 28 45 149 l0 111 68 0 67 0 80 -128 c74 -116 83 -127
110 -127 52 0 44 33 -36 162 -46 74 -68 118 -60 121 27 9 75 59 92 97 34 74
19 176 -34 233 -47 51 -94 65 -222 70 -109 4 -122 2 -137 -15z m261 -83 c64
-32 89 -116 55 -181 -22 -44 -83 -69 -171 -69 l-73 0 0 135 0 135 75 0 c55 0
86 -5 114 -20z"/>
<path d="M10947 7928 c-16 -12 -17 -42 -15 -343 l3 -330 29 -3 c16 -2 32 2 37
10 5 7 9 158 9 335 0 308 -1 323 -19 333 -24 13 -24 13 -44 -2z"/>
<path d="M11126 7924 c-19 -18 -19 -20 -6 -45 10 -17 22 -19 120 -19 l110 0 0
-294 c0 -316 1 -322 52 -314 l23 3 3 303 2 302 108 0 c111 0 132 7 132 42 0
33 -34 38 -284 38 -209 0 -247 -2 -260 -16z"/>
<path d="M11898 7923 c-25 -29 -269 -623 -266 -646 2 -17 10 -22 33 -22 31 0
43 15 80 107 l15 38 165 0 166 0 10 -30 c27 -75 54 -115 81 -118 55 -6 47 25
-88 348 -125 300 -145 340 -169 340 -7 0 -19 -8 -27 -17z m96 -288 l64 -160
-130 -3 c-72 -1 -132 -1 -134 1 -2 1 27 76 63 165 37 89 68 161 69 159 2 -1
32 -75 68 -162z"/>
<path d="M12337 7925 c-15 -15 -17 -51 -17 -334 0 -233 3 -320 12 -329 8 -8
60 -12 168 -12 171 0 209 10 262 66 36 39 48 74 48 142 0 69 -30 120 -85 146
l-35 17 29 24 c85 72 60 219 -46 271 -55 27 -311 34 -336 9z m298 -79 c40 -17
55 -42 55 -91 0 -81 -42 -105 -185 -105 l-95 0 0 105 0 105 95 0 c60 0 108 -5
130 -14z m35 -291 c42 -22 60 -53 60 -107 0 -38 -6 -54 -27 -78 -35 -38 -79
-49 -200 -50 l-93 0 0 125 0 125 115 0 c83 0 124 -4 145 -15z"/>
<path d="M12966 7924 c-14 -13 -16 -58 -16 -333 0 -233 3 -320 12 -329 9 -9
71 -12 220 -12 200 0 208 1 218 21 9 16 8 25 -6 40 -16 17 -32 19 -191 19
l-173 0 0 293 c0 296 -2 317 -36 317 -7 0 -20 -7 -28 -16z"/>
<path d="M13531 7926 c-8 -9 -11 -108 -9 -342 l3 -329 235 0 235 0 0 30 0 30
-197 3 -198 2 0 115 0 115 124 0 c149 0 179 8 174 48 l-3 27 -147 3 -148 3 0
114 0 115 198 2 197 3 3 23 c7 50 -4 52 -238 52 -172 0 -220 -3 -229 -14z"/>
<path d="M14332 7928 c-7 -7 -12 -19 -12 -28 0 -33 22 -40 127 -40 l103 0 0
-286 c0 -177 4 -293 10 -305 6 -11 21 -19 35 -19 14 0 29 8 35 19 6 12 10 128
10 305 l0 286 99 0 c115 0 131 4 131 34 0 44 -10 46 -275 46 -182 0 -254 -3
-263 -12z"/>
<path d="M14992 7927 c-9 -11 -12 -94 -10 -343 l3 -329 23 -3 c45 -7 52 11 52
139 l0 119 68 0 69 0 79 -127 c62 -99 85 -129 104 -131 14 -3 29 3 37 13 15
21 10 30 -78 171 -40 64 -58 99 -49 102 25 9 78 63 94 96 32 68 15 179 -37
234 -47 51 -94 65 -222 70 -98 3 -123 2 -133 -11z m255 -84 c44 -21 73 -67 73
-116 0 -91 -62 -136 -187 -137 l-73 0 0 135 0 135 76 0 c50 0 88 -6 111 -17z"/>
<path d="M15546 7927 c-16 -12 -17 -34 -14 -267 3 -279 4 -285 67 -347 39 -40
91 -63 165 -76 126 -21 246 32 298 132 l28 53 0 249 c0 238 -1 249 -20 259
-14 8 -26 8 -40 0 -19 -10 -20 -21 -20 -245 0 -141 -4 -245 -11 -262 -49 -131
-266 -154 -355 -37 l-29 37 -3 246 c-3 214 -5 248 -19 259 -21 15 -25 15 -47
-1z"/>
<path d="M16376 7925 c-156 -55 -157 -255 -1 -325 22 -10 69 -24 105 -30 112
-20 160 -60 160 -134 0 -77 -55 -119 -155 -119 -71 0 -115 19 -166 74 -26 28
-41 37 -57 33 -69 -19 9 -132 117 -169 64 -22 166 -19 221 6 86 39 121 90 121
175 0 114 -60 173 -206 203 -143 28 -175 52 -175 129 0 116 213 140 290 33 17
-25 28 -31 49 -29 63 7 16 105 -72 147 -52 25 -169 28 -231 6z"/>
<path d="M16772 7928 c-7 -7 -12 -19 -12 -28 0 -33 22 -40 127 -40 l103 0 0
-286 c0 -177 4 -293 10 -305 6 -11 21 -19 35 -19 14 0 29 8 35 19 6 12 10 128
10 305 l0 286 99 0 c115 0 131 4 131 34 0 44 -10 46 -275 46 -182 0 -254 -3
-263 -12z"/>
<path d="M4343 7863 c-19 -7 -16 -48 6 -74 16 -20 23 -22 38 -13 26 16 27 46
3 72 -21 23 -26 24 -47 15z"/>
<path d="M3403 7664 c-13 -35 10 -49 89 -52 59 -2 79 1 92 13 12 12 13 21 6
36 -9 16 -22 19 -96 19 -69 0 -86 -3 -91 -16z"/>
<path d="M4527 7673 c-4 -3 -7 -17 -7 -29 0 -29 24 -36 109 -32 67 3 91 19 78
52 -5 13 -22 16 -90 16 -46 0 -87 -3 -90 -7z"/>
<path d="M3673 7290 c-65 -14 -353 -140 -363 -161 -6 -10 -10 -25 -10 -33 0
-26 100 -259 120 -280 29 -30 64 -22 157 38 48 31 97 59 110 62 13 4 75 -10
150 -34 183 -57 184 -58 245 -29 61 27 367 253 392 288 25 36 21 95 -9 124
-36 37 -80 32 -202 -20 l-105 -45 -34 21 c-29 17 -43 20 -96 14 -55 -6 -73 -3
-144 23 -94 35 -153 44 -211 32z m193 -96 c92 -32 111 -35 163 -29 92 11 93
-27 3 -67 -42 -19 -47 -19 -118 -3 -80 18 -104 12 -104 -26 0 -20 68 -45 152
-56 41 -5 58 -1 112 26 40 20 72 43 84 63 15 24 43 41 123 74 57 24 111 44
121 44 46 0 11 -40 -130 -147 -164 -124 -226 -163 -261 -163 -13 0 -80 18
-148 40 -142 45 -178 48 -232 21 l-38 -20 -41 101 c-23 56 -40 103 -38 106 17
16 178 72 209 72 21 0 86 -16 143 -36z m-377 -171 c23 -54 41 -103 41 -108 0
-11 -59 -50 -65 -43 -5 5 -95 222 -92 223 22 11 55 24 63 24 7 1 30 -43 53
-96z"/>
</g>
</svg>
